# xmcd
#
# Track frame offsets: 
#        150
#        20777
#        34046
#        54464
#        77249
#        93766
#        112419
#        135390
#        152516
#        171689
#        189621
#        201808
#        219420
#        239836
#
# Disc length: 3373 seconds
#
# Revision: 0
# Processed by: cddbd v1.5.2PL0 Copyright (c) Steve Scherf et al.
# Submitted via: ExactAudioCopy v0.95a5
#
DISCID=ca0d2b0e
DTITLE=John Trudell - Madness and Moremes
DYEAR=2007
DGENRE=Native American
TTITLE0=Madness And
TTITLE1=Like Temptation
TTITLE2=Broke The Light
TTITLE3=How Does Tomorrow Dream
TTITLE4=Looking For An Angel
TTITLE5=Happy Fell Down
TTITLE6=Teddy Bear Tears
TTITLE7=Waiting For Yesterday
TTITLE8=Sweeting The Light
TTITLE9=Famine In The Plenty
TTITLE10=Asking The Wind
TTITLE11=Material Junkies
TTITLE12=A Face On God
TTITLE13=God Help And Breed You All
EXTD=
EXTT0=
EXTT1=
EXTT2=
EXTT3=
EXTT4=
EXTT5=
EXTT6=
EXTT7=
EXTT8=
EXTT9=
EXTT10=
EXTT11=
EXTT12=
EXTT13=
PLAYORDER=
